<svg id="svg" version="1.1" viewBox="0 0 300 180.5" width="300" height="180.5" xmlns="http://www.w3.org/2000/svg"><svg xmlns="http://www.w3.org/2000/svg"><defs><clipPath id="clip-1"><rect x="0" y="0" transform="scale(0.14648,0.14651)" width="2048" height="1232" fill="none"/></clipPath></defs><g clip-path="url(#clip-1)" fill="none" fill-rule="nonzero" stroke="none" stroke-width="1" stroke-linecap="butt" stroke-linejoin="miter" stroke-miterlimit="10" stroke-dasharray="" stroke-dashoffset="0" font-family="none" font-weight="none" font-size="none" text-anchor="none" style="mix-blend-mode: normal"><path d="M0,0h300v180.5h-300z" fill="#9aa1a7"/><path d="M91.49048,32.97363l121.51978,-0.00601l0.01172,121.57085l-1.6333,-0.0044l-119.87417,-0.00733c-0.16626,-4.56964 -0.03735,-9.98786 -0.03618,-14.60585l0.00073,-26.81993z" fill="#000000"/><path d="M93.89473,35.37741l116.73955,0.00059l-0.00439,116.72695l-116.74629,-0.01758z" fill="#feb381"/><path d="M152.25439,71.78098c1.87646,-7.76062 8.2251,-18.84159 16.98486,-20.12765c13.7915,-2.02476 21.15088,15.03586 22.82959,26.06086c1.95264,12.82883 0.55811,27.36568 -7.00488,38.27933c-3.14941,4.53682 -7.04883,7.23231 -12.4248,8.11063c-10.98047,0.3736 -18.16699,-10.8259 -20.33057,-20.35138c-1.5542,5.11509 -3.27979,9.04478 -6.51768,13.2962c-5.54795,7.28593 -14.67451,9.72502 -22.13057,3.50158c-7.29404,-6.08821 -10.75532,-16.9462 -11.69839,-26.15682c-1.24761,-12.18331 0.76553,-26.44017 8.61855,-36.27493c3.05508,-3.76017 6.8105,-6.17451 11.68242,-6.64143c10.99468,-0.23764 17.44409,11.00039 19.99146,20.30361z" fill="#000000"/><path d="M170.19287,53.66842c2.91357,-0.2328 5.26611,0.33477 7.71387,1.96777c6.41895,4.28292 10.02539,13.38117 11.4624,20.66578c2.38623,12.09746 1.11328,27.25521 -5.79785,37.77842c-2.55615,3.89247 -5.89307,6.87936 -10.5498,7.79564c-11.88135,1.55872 -18.37939,-15.14222 -19.74463,-24.39666c-1.80762,-12.23898 -0.58594,-26.26085 6.63574,-36.7067c2.47998,-3.58832 5.92969,-6.38797 10.28027,-7.10426z" fill="#fefefe"/><path d="M161.97803,75.77161c10.03711,0.10607 11.2793,24.26201 0.98584,27.00468c-10.37256,0.0293 -11.33789,-24.60939 -0.98584,-27.00468z" fill="#000000"/><path d="M158.31006,82.20339c2.09912,-0.03824 3.08496,1.6478 1.12354,2.95144c-2.27051,0.19984 -3.31055,-1.68735 -1.12354,-2.95144z" fill="#fefefe"/><path d="M131.66719,53.66593c10.76821,-1.29617 17.3748,13.15804 19.01836,21.64681c0.43652,2.25815 -0.0542,4.21772 -0.2915,6.46254c-0.14941,1.47814 -0.24463,2.96125 -0.28564,4.44628c-0.06299,2.5859 0.03809,5.17311 0.30029,7.74626c0.25928,2.43528 0.76465,4.20849 0.20215,6.6451c-1.90283,8.23605 -6.68071,19.43671 -15.99038,21.25256c-3.08174,0.38356 -5.70044,-0.32027 -8.2541,-2.07853c-6.46963,-4.45448 -10.05469,-13.86803 -11.38872,-21.32156c-2.15376,-12.03226 -0.80435,-27.01244 6.20405,-37.32746c2.56172,-3.77043 5.91489,-6.65462 10.4855,-7.472z" fill="#fefefe"/><path d="M123.13857,74.76568c10.1269,0.58838 10.79004,24.85303 0.64219,27.03691c-10.18037,0.08175 -11.21133,-25.18488 -0.64219,-27.03691z" fill="#000000"/><path d="M118.34282,81.32682c2.24282,-0.3295 3.55942,1.18468 1.52769,2.81811c-1.92349,0.36686 -3.2436,-1.17545 -1.52769,-2.81811z" fill="#fefefe"/><path d="M189.26074,115.71046c0.57422,0.05479 0.68848,0.05348 1.19385,0.36554c0.20215,0.3024 0.39258,0.53974 0.29443,0.95349c-0.54639,2.32672 -4.15723,6.07298 -5.87549,7.44328c-4.37842,3.49221 -9.71338,4.75527 -15.19189,4.11136c-5.07568,-0.59644 -8.92236,-2.17567 -12.14795,-6.14594c-0.72656,-1.0452 -1.08838,-1.57879 -0.56396,-2.85005c1.29053,-1.16314 2.96045,2.42049 3.96533,3.24446c7.39893,6.06668 19.6377,4.75732 25.40771,-3.03466c0.83496,-1.12739 2.0083,-3.22263 2.91797,-4.08748z" fill="#000000"/><path d="M131.69751,47.5304c7.9415,-0.41755 13.89097,2.47689 18.59839,8.95057c0.69727,0.95905 2.21484,2.98616 0.82031,3.92968c-0.47314,0.0712 -1.15723,-0.1282 -1.396,-0.51864c-2.55469,-4.17143 -4.91748,-6.77901 -9.43843,-8.96933c-5.87021,-2.32599 -13.89609,-1.73409 -18.68335,2.70179c-0.98467,0.91232 -2.13032,4.02389 -3.82222,2.92126c-0.45688,-1.07318 0.43975,-2.55454 1.12808,-3.35756c3.29399,-3.84324 7.87837,-5.28798 12.79321,-5.65777z" fill="#000000"/><path d="M170.1709,47.53172c0.35596,-0.02666 0.71191,-0.04425 1.06934,-0.0526c5.72021,-0.13362 10.41943,1.61029 14.58252,5.60327c1.26855,1.21632 4.30518,4.48818 4.30811,6.35559c0.00146,0.5059 -0.22266,0.67614 -0.5332,0.95671c-0.45703,0.10256 -1.10156,-0.0189 -1.34766,-0.41638c-2.58838,-4.18549 -5.02734,-7.01108 -9.64453,-9.10646c-5.64258,-2.2983 -13.83691,-1.58963 -18.45117,2.67468c-0.83789,0.77401 -1.51758,2.38225 -2.45654,3.0392c-0.62402,0.43587 -1.39307,-0.1723 -1.67432,-0.7702c-0.02344,-0.97473 1.07666,-2.27925 1.72852,-3.00887c3.20801,-3.5955 7.79297,-4.94016 12.41895,-5.27494z" fill="#000000"/><path d="M150.85986,115.67823c0.64014,0.11691 1.83545,0.57139 1.47949,1.41455c-1.22021,2.83965 -3.68555,5.50921 -6.06475,7.45427c-7.57925,6.19678 -21.1459,5.69058 -27.33809,-2.28599c-0.58945,-0.85283 -1.31777,-2.7242 0.17227,-2.95789c1.30474,0.48788 1.91543,2.02667 2.81045,2.91584c6.90044,6.85592 20.19507,5.49924 25.90547,-2.37287c0.75439,-1.03919 2.27344,-3.57367 3.03516,-4.16791z" fill="#000000"/></g></svg></svg>